<svg width="22" height="22" viewBox="0 0 22 22" fill="none" xmlns="http://www.w3.org/2000/svg">
    <path
        d="M6.86793 21.2566C6.39187 21.2354 5.92542 21.1167 5.4979 20.9081C5.07039 20.6995 4.69109 20.4055 4.38389 20.0446C4.07669 19.6837 3.84824 19.2637 3.71291 18.811C3.57759 18.3583 3.53831 17.8828 3.59757 17.4144L3.845 15.4846C3.89224 15.1144 3.84804 14.7384 3.71619 14.389C3.58435 14.0395 3.3688 13.7269 3.08808 13.4782L1.62495 12.183C1.14581 11.7589 0.795974 11.2106 0.615043 10.5998C0.434111 9.98912 0.4293 9.34041 0.601133 8.72711C0.772966 8.11382 1.11458 7.56039 1.58737 7.12943C2.06016 6.69847 2.64525 6.40719 3.27644 6.28851L5.20533 5.92555C5.57511 5.85604 5.92227 5.69852 6.21695 5.46656C6.51162 5.2346 6.74497 4.93514 6.89687 4.59399L7.68858 2.81276C7.94781 2.23048 8.36629 1.73166 8.8967 1.37265C9.42711 1.01365 10.0483 0.808783 10.6901 0.781217C11.3319 0.753652 11.9686 0.904488 12.5284 1.21667C13.0882 1.52885 13.5487 1.98992 13.8578 2.54779L14.8016 4.25292C14.9826 4.58031 15.2414 4.85913 15.5555 5.06534C15.8696 5.27155 16.2296 5.39896 16.6044 5.43656L18.5572 5.63201C19.1964 5.69606 19.8048 5.93604 20.3135 6.32479C20.8222 6.71353 21.2109 7.23554 21.4358 7.83178C21.6606 8.42802 21.7126 9.0747 21.5858 9.69867C21.459 10.3226 21.1584 10.899 20.7182 11.3626L19.3733 12.7791C19.1152 13.0505 18.9276 13.3801 18.8269 13.7394C18.7261 14.0988 18.7152 14.477 18.7951 14.8414L19.2101 16.7436C19.3459 17.3655 19.3033 18.0127 19.0873 18.6119C18.8713 19.2111 18.4903 19.7386 17.9875 20.1345C17.4848 20.5305 16.8802 20.7793 16.2422 20.8526C15.6042 20.926 14.9582 20.8211 14.3772 20.5498L12.6014 19.7209C12.261 19.5611 11.8863 19.4859 11.51 19.502C11.1336 19.518 10.7669 19.6247 10.4416 19.8128L8.74478 20.7917C8.17679 21.121 7.52552 21.2823 6.86793 21.2566Z"
        fill="white" />
</svg>
    